<svg xmlns="http://www.w3.org/2000/svg" width="640" height="400" viewBox="0 0 640 400">
  <rect width="640" height="400" fill="#111217"/>
  <rect x="0" y="0" width="640" height="36" fill="#16171e"/>
  <text x="16" y="24" fill="#b8bcc8" font-family="ui-monospace, monospace" font-size="10">Libertrade · Analytics · Demo</text>
  <rect x="0" y="36" width="640" height="44" fill="#16171e"/>
  <text x="20" y="64" fill="#4a4f5e" font-family="ui-monospace, monospace" font-size="8">TODAY&apos;S GATE</text>
  <text x="20" y="78" fill="#259186" font-family="ui-monospace, monospace" font-size="11">GREEN</text>
  <text x="120" y="78" fill="#259186" font-family="ui-monospace, monospace" font-size="13">87%</text>
  <text x="200" y="78" fill="#9e7040" font-family="ui-monospace, monospace" font-size="13">62%</text>
  <text x="300" y="78" fill="#259186" font-family="ui-monospace, monospace" font-size="13">$246.50</text>
  <rect x="16" y="92" width="400" height="280" rx="3" fill="#16171e" stroke="#22242e"/>
  <text x="28" y="116" fill="#4a4f5e" font-family="ui-monospace, monospace" font-size="8">SESSION P&amp;L</text>
  <rect x="48" y="280" width="32" height="72" fill="rgba(37,145,134,0.55)"/>
  <rect x="92" y="240" width="32" height="112" fill="rgba(37,145,134,0.55)"/>
  <rect x="136" y="260" width="32" height="92" fill="rgba(138,53,53,0.45)"/>
  <rect x="180" y="220" width="32" height="132" fill="rgba(37,145,134,0.55)"/>
  <rect x="432" y="92" width="192" height="280" rx="3" fill="#16171e" stroke="#22242e"/>
  <text x="448" y="116" fill="#4a4f5e" font-family="ui-monospace, monospace" font-size="8">DISCIPLINE</text>
  <rect x="448" y="140" width="160" height="8" rx="2" fill="#22242e"/>
  <rect x="448" y="140" width="112" height="8" rx="2" fill="#259186"/>
</svg>
